<svg xmlns="http://www.w3.org/2000/svg" width="82" height="72" fill="none"  xmlns:v="https://vecta.io/nano"><path d="M55.022 49.265c-1.347 0-2.984-.554-4.88-1.194-2.562-.866-5.751-1.944-9.096-1.944s-6.535 1.078-9.097 1.944c-2.921.987-5.229 1.768-6.809.633-.937-.672-1.392-1.876-1.392-3.679 0-7.776 7.832-23.013 17.299-23.013s17.299 15.237 17.299 23.013c0 1.803-.455 3.007-1.392 3.679-.555.399-1.201.561-1.93.561zM41.045 24.318c-7.899 0-14.992 14.064-14.992 20.707 0 1.35.301 1.712.43 1.805.616.441 2.801-.293 4.726-.944 2.723-.92 6.111-2.065 9.836-2.065s7.113 1.145 9.835 2.064c1.926.652 4.111 1.386 4.727.945.13-.093.43-.455.43-1.805 0-6.642-7.093-20.707-14.992-20.707zm-20.002 8.076c-.397 0-.809-.056-1.229-.169-1.877-.503-3.746-2.101-4.997-4.274-2.094-3.633-1.808-7.594.65-9.018.902-.524 1.984-.636 3.129-.329 1.877.503 3.746 2.102 4.997 4.274 2.094 3.634 1.809 7.595-.65 9.018a3.75 3.75 0 0 1-1.9.498zM17.37 20.742a1.47 1.47 0 0 0-.747.187c-1.131.655-1.33 3.228.193 5.871.939 1.628 2.317 2.854 3.596 3.197.549.148 1.012.114 1.376-.097 1.132-.654 1.33-3.227-.192-5.871-.939-1.628-2.317-2.854-3.596-3.197a2.46 2.46 0 0 0-.63-.09zm43.78 11.652c-.686 0-1.329-.167-1.9-.498-2.459-1.422-2.743-5.383-.65-9.018 1.251-2.172 3.12-3.771 4.997-4.274 1.145-.306 2.228-.194 3.129.329 2.457 1.424 2.743 5.384.65 9.018-1.251 2.172-3.12 3.771-4.997 4.274-.42.113-.831.169-1.229.169zm3.674-11.652a2.46 2.46 0 0 0-.63.09c-1.279.343-2.657 1.569-3.596 3.197-1.523 2.644-1.324 5.217-.193 5.871.365.211.829.244 1.376.097 1.279-.343 2.657-1.569 3.596-3.197 1.523-2.643 1.323-5.216.193-5.871a1.47 1.47 0 0 0-.747-.187zM32.035 19.35c-1.244 0-2.547-.515-3.786-1.513-1.58-1.274-2.9-3.224-3.716-5.491-1.781-4.958-.628-9.761 2.625-10.936 1.162-.42 2.454-.322 3.739.283 2.202 1.036 4.164 3.453 5.247 6.463 1.782 4.956.63 9.759-2.624 10.934a4.37 4.37 0 0 1-1.484.259zm-3.4-15.889a2.04 2.04 0 0 0-.694.118c-1.756.634-2.673 3.995-1.238 7.986.674 1.874 1.737 3.464 2.992 4.476.634.51 1.87 1.302 3.041.881 1.936-.701 2.514-4.431 1.236-7.984-.867-2.412-2.421-4.388-4.058-5.158-.453-.213-.881-.319-1.279-.319zm19.309 15.886a4.3 4.3 0 0 1-1.473-.256c-3.255-1.176-4.407-5.978-2.625-10.934 1.083-3.01 3.045-5.427 5.247-6.463 1.286-.606 2.578-.704 3.739-.283 3.254 1.176 4.406 5.979 2.624 10.936-1.082 3.009-3.043 5.425-5.246 6.461-.761.359-1.527.54-2.266.54zm3.41-15.885c-.399 0-.827.106-1.279.319-1.636.77-3.191 2.746-4.058 5.158-1.278 3.553-.701 7.283 1.237 7.984.58.208 1.246.143 1.974-.202 1.636-.769 3.191-2.745 4.057-5.155 1.436-3.991.519-7.352-1.237-7.986a2.04 2.04 0 0 0-.694-.118zm-6.423 5.086h.011-.011z" fill="#fbb168"/><g clip-path="url(#A)"><path d="M10.021 66.353c.508-.508.913-1.106 1.216-1.793a5.45 5.45 0 0 0 .451-2.206c0-.783-.15-1.521-.451-2.215a6.01 6.01 0 0 0-1.216-1.815c-.518-.508-1.123-.913-1.815-1.215s-1.432-.451-2.215-.451-1.518.15-2.206.451-1.285.708-1.793 1.215A5.73 5.73 0 0 0 .77 60.139c-.296.694-.444 1.432-.444 2.215s.148 1.518.444 2.206a5.56 5.56 0 0 0 1.222 1.793c.508.518 1.106.926 1.793 1.222s1.423.444 2.206.444 1.521-.148 2.215-.444 1.297-.704 1.815-1.222zm-7.569-.444c-.455-.444-.815-.973-1.079-1.587a4.88 4.88 0 0 1-.397-1.952c0-.698.132-1.357.397-1.977s.624-1.154 1.079-1.609a5.25 5.25 0 0 1 1.596-1.089c.607-.269 1.255-.403 1.942-.403.698 0 1.352.134 1.961.403s1.144.634 1.609 1.089c.455.465.815 1.002 1.079 1.609s.397 1.263.397 1.961a4.85 4.85 0 0 1-.397 1.958c-.264.609-.624 1.141-1.079 1.596a5.13 5.13 0 0 1-1.625 1.095c-.62.264-1.279.397-1.977.397-.677 0-1.319-.132-1.926-.397s-1.136-.63-1.581-1.095zm10.346 1.984h3.063v-.619h-1.174v-2.634c0-.317.066-.608.197-.873a2.26 2.26 0 0 1 .549-.698 2.26 2.26 0 0 1 .762-.444c.296-.106.608-.159.936-.159.444.021.78.156 1.006.403s.353.549.374.898v3.507h-1.238v.619h3.063v-.619h-1.174v-3.681c-.021-.529-.201-.957-.54-1.285s-.799-.492-1.381-.492c-.603.011-1.132.164-1.587.46s-.793.698-1.016 1.206l.048-.714v-6.776h-1.825v.619h1.174v10.664h-1.238v.619zm13.726-.571l-.413-.492c-.212.169-.45.301-.714.397s-.545.143-.841.143a2.46 2.46 0 0 1-.962-.19c-.3-.127-.556-.296-.768-.508a2.31 2.31 0 0 1-.54-.787c-.127-.3-.191-.625-.191-.974a2.5 2.5 0 0 1 .191-.977 2.38 2.38 0 0 1 .555-.8c.212-.212.465-.378.762-.498s.614-.184.952-.184c.264 0 .513.037.746.111a2.23 2.23 0 0 1 .635.317v1.174h.603v-1.555a3.1 3.1 0 0 0-.905-.498 3.14 3.14 0 0 0-1.079-.184 3.03 3.03 0 0 0-1.216.244 3.38 3.38 0 0 0-.99.66 2.89 2.89 0 0 0-.666.984c-.159.381-.238.783-.238 1.206 0 .434.079.838.238 1.212s.386.702.682.977c.275.286.6.508.974.666s.782.238 1.216.238a3.01 3.01 0 0 0 1.063-.184 3.4 3.4 0 0 0 .905-.498zm6.82-.968v.714l.032.825h1.698v-.571h-1.127v-5.379h-1.825v.619h1.174v2.634c0 .317-.066.611-.197.879s-.311.496-.533.676a2.5 2.5 0 0 1-.784.46 2.71 2.71 0 0 1-.93.159c-.444-.021-.78-.156-1.006-.406s-.353-.546-.375-.895v-4.126h-1.825v.619h1.174v3.682c.021.529.201.957.54 1.285s.799.492 1.381.492 1.109-.151 1.58-.454.81-.705 1.022-1.212zm4.221 1.539h1.952v-.619h-1.301v-4.697h1.841v-.635h-1.841V58.07h-.651v3.872h-1.381v.635h1.381v5.316zm3.602 0h3.063v-.619h-1.19v-5.332h-1.873v.619h1.222v4.713h-1.222v.619zm2.079-8.061a.5.5 0 0 0-.159-.374c-.106-.099-.227-.149-.365-.149a.5.5 0 0 0-.508.524.49.49 0 0 0 .159.371c.106.102.222.152.349.152a.51.51 0 0 0 .365-.152.49.49 0 0 0 .159-.371zm5.205 2.618c.413 0 .785.114 1.117.343a2.4 2.4 0 0 1 .787.879l-2.152.847-2.149.851a2.37 2.37 0 0 1 .016-1.057c.085-.343.233-.652.444-.927.222-.286.499-.513.831-.682a2.41 2.41 0 0 1 1.104-.254zm2.079 4.729l-.397-.476a2.42 2.42 0 0 1-.762.492c-.286.116-.592.174-.92.174-.497 0-.941-.127-1.333-.381s-.682-.587-.873-1l2.466-.984 2.469-.968a4.11 4.11 0 0 0-.413-.882c-.169-.269-.365-.498-.587-.689-.233-.212-.497-.373-.793-.486s-.608-.165-.936-.165a3.03 3.03 0 0 0-1.215.244 3.38 3.38 0 0 0-.99.66c-.286.275-.508.603-.666.984s-.238.783-.238 1.206c0 .434.079.836.238 1.206s.381.698.666.984.616.508.99.666.782.238 1.215.238c.413 0 .794-.074 1.143-.222a3.23 3.23 0 0 0 .936-.603zm1.933 4.062v.619h3.063v-.619h-1.349v-4.062l-.006-.295-.01-.308c.074.19.183.367.327.53s.324.316.546.454a2.47 2.47 0 0 0 .73.343c.275.078.571.117.889.117a3 3 0 0 0 1.206-.248c.381-.163.714-.382 1-.657s.508-.603.667-.984.238-.783.238-1.206a3.06 3.06 0 0 0-.238-1.2c-.159-.375-.381-.705-.667-.99s-.619-.508-1-.666-.783-.238-1.206-.238c-.635 0-1.174.153-1.619.46s-.756.666-.936 1.079l-.022-.708-.025-.72h-1.714v.619h1.19v8.68h-1.063zm4.189-8.775a2.46 2.46 0 0 1 .936.181 2.67 2.67 0 0 1 .778.486c.233.222.416.487.549.793s.197.64.197 1c0 .349-.066.677-.197.984s-.316.571-.549.793c-.222.212-.481.378-.778.498a2.42 2.42 0 0 1-.936.184c-.349 0-.672-.061-.968-.184s-.555-.287-.778-.498c-.233-.233-.413-.5-.539-.803s-.19-.625-.19-.974c0-.338.061-.659.184-.962s.292-.562.514-.784a2.43 2.43 0 0 1 .787-.524c.3-.127.63-.19.99-.19zm9.886 5.427H68.3v-.619h-1.174v-5.332h-.524l-.048.705-.016.692c-.18-.413-.492-.77-.936-1.073s-.979-.451-1.603-.451c-.444 0-.854.081-1.228.244s-.708.385-.993.66c-.286.286-.508.619-.666 1s-.238.778-.238 1.19c0 .434.079.836.238 1.206s.381.698.666.984.617.508.993.666.784.238 1.228.238c.317 0 .617-.042.898-.127a2.82 2.82 0 0 0 .752-.349c.212-.138.395-.294.549-.47s.266-.355.34-.546v.371.359.651zM64 62.449c.338 0 .656.061.952.184a2.51 2.51 0 0 1 .793.514 2.57 2.57 0 0 1 .533.784 2.43 2.43 0 0 1 .197.977c0 .349-.066.674-.197.974a2.43 2.43 0 0 1-.549.787 2.33 2.33 0 0 1-.778.514c-.296.123-.614.184-.952.184a2.46 2.46 0 0 1-.936-.174 2.42 2.42 0 0 1-.762-.492 2.38 2.38 0 0 1-.571-.793c-.138-.307-.206-.64-.206-1a2.46 2.46 0 0 1 .184-.952 2.33 2.33 0 0 1 .514-.778A2.14 2.14 0 0 1 63 62.64a2.59 2.59 0 0 1 1-.19zm9.505 5.808l2.174-4.284 2.142 4.284 1.428-2.84 1.428-2.856h1.079v-.619h-2.666v.619h.92L78.9 64.814l-1.079 2.253-1.073-2.247-1.117-2.26h1.047v-.619h-2.92v.619h1.127l.476.952-.898 1.73-.927 1.825-1.073-2.199-1.149-2.307h.936v-.619h-2.84v.619h1.254l1.419 2.856 1.422 2.84z" fill="#3c2c32"/></g><defs><clipPath id="A"><path fill="#fff" transform="translate(.326 55.991)" d="M0 0h81.431v15.869H0z"/></clipPath></defs></svg>